<svg xmlns="http://www.w3.org/2000/svg" viewBox="0 0 64 64" role="img" aria-label="SkiLuxe">
  <defs>
    <linearGradient id="gold" x1="32" y1="4" x2="32" y2="60" gradientUnits="userSpaceOnUse">
      <stop offset="0" stop-color="#F5E6B8"/>
      <stop offset="0.45" stop-color="#D4AF37"/>
      <stop offset="1" stop-color="#8B6914"/>
    </linearGradient>
    <linearGradient id="goldDark" x1="32" y1="28" x2="32" y2="60" gradientUnits="userSpaceOnUse">
      <stop offset="0" stop-color="#C9A227"/>
      <stop offset="1" stop-color="#6B5416"/>
    </linearGradient>
    <radialGradient id="eye" cx="0.5" cy="0.5" r="0.5">
      <stop offset="0" stop-color="#D8F4FF"/>
      <stop offset="0.55" stop-color="#7EC8E8"/>
      <stop offset="1" stop-color="#3A8FB8"/>
    </radialGradient>
  </defs>
  <!-- Heraldic wolf head  simplified vector mark -->
  <path d="M32 3 L44 11 L49 22 L52 34 L54 58 L32 62 L10 58 L12 34 L15 22 L20 11 Z" fill="url(#gold)"/>
  <path d="M32 8 L40 14 L44 24 L46 36 L47 54 L32 57 L17 54 L18 36 L20 24 L24 14 Z" fill="url(#goldDark)" opacity="0.35"/>
  <path d="M20 11 L24 18 L28 14 L32 20 L36 14 L40 18 L44 11" fill="none" stroke="#F5E6B8" stroke-width="1.2" stroke-linejoin="round" opacity="0.7"/>
  <path d="M18 36 C22 42 26 44 32 44 C38 44 42 42 46 36" fill="none" stroke="#F5E6B8" stroke-width="1" opacity="0.45"/>
  <path d="M22 52 C26 48 30 46 32 46 C34 46 38 48 42 52 L32 58 Z" fill="#9A7B2F" opacity="0.55"/>
  <ellipse cx="24" cy="28" rx="3.2" ry="2.4" fill="url(#eye)"/>
  <ellipse cx="40" cy="28" rx="3.2" ry="2.4" fill="url(#eye)"/>
  <ellipse cx="24.5" cy="27.5" rx="1" ry="0.7" fill="#0A0F18" opacity="0.65"/>
  <ellipse cx="40.5" cy="27.5" rx="1" ry="0.7" fill="#0A0F18" opacity="0.65"/>
  <path d="M32 34 L32 40 M29 37 L35 37" stroke="#6B5416" stroke-width="1.4" stroke-linecap="round"/>
  <path d="M14 40 C18 46 24 50 32 50 C40 50 46 46 50 40" fill="none" stroke="#F0D78C" stroke-width="0.8" opacity="0.5"/>
  <path d="M16 48 C20 52 26 55 32 55 C38 55 44 52 48 48" fill="none" stroke="#F0D78C" stroke-width="0.6" opacity="0.35"/>
</svg>
